<svg width="16" height="16" viewBox="0 0 16 16" fill="none" xmlns="http://www.w3.org/2000/svg">
<g clip-path="url(#clip0_863_165025)">
<path d="M3.33331 10.0007H2.66665C2.31302 10.0007 1.97389 9.86018 1.72384 9.61013C1.47379 9.36008 1.33331 9.02094 1.33331 8.66732V2.66732C1.33331 2.3137 1.47379 1.97456 1.72384 1.72451C1.97389 1.47446 2.31302 1.33398 2.66665 1.33398H8.66665C9.02027 1.33398 9.35941 1.47446 9.60946 1.72451C9.8595 1.97456 9.99998 2.3137 9.99998 2.66732V3.33398M7.33331 6.00065H13.3333C14.0697 6.00065 14.6666 6.5976 14.6666 7.33398V13.334C14.6666 14.0704 14.0697 14.6673 13.3333 14.6673H7.33331C6.59693 14.6673 5.99998 14.0704 5.99998 13.334V7.33398C5.99998 6.5976 6.59693 6.00065 7.33331 6.00065Z" stroke="#98A2B3" stroke-width="1.33333" stroke-linecap="round" stroke-linejoin="round"/>
</g>
<defs>
<clipPath id="clip0_863_165025">
<rect width="16" height="16" fill="white"/>
</clipPath>
</defs>
</svg>
