<svg width="12" height="12" viewBox="0 0 12 12" fill="none" xmlns="http://www.w3.org/2000/svg">
<path d="M6 0C6.55078 0 7.08203 0.0703125 7.59375 0.210938C8.10547 0.351562 8.58398 0.552734 9.0293 0.814453C9.47461 1.07617 9.87891 1.38867 10.2422 1.75195C10.6055 2.11523 10.918 2.52148 11.1797 2.9707C11.4414 3.41992 11.6426 3.89844 11.7832 4.40625C11.9238 4.91406 11.9961 5.44531 12 6C12 6.55078 11.9297 7.08203 11.7891 7.59375C11.6484 8.10547 11.4473 8.58398 11.1855 9.0293C10.9238 9.47461 10.6113 9.87891 10.248 10.2422C9.88477 10.6055 9.47852 10.918 9.0293 11.1797C8.58008 11.4414 8.10156 11.6426 7.59375 11.7832C7.08594 11.9238 6.55469 11.9961 6 12C5.44922 12 4.91797 11.9297 4.40625 11.7891C3.89453 11.6484 3.41602 11.4473 2.9707 11.1855C2.52539 10.9238 2.12109 10.6113 1.75781 10.248C1.39453 9.88477 1.08203 9.47852 0.820312 9.0293C0.558594 8.58008 0.357422 8.10352 0.216797 7.59961C0.0761719 7.0957 0.00390625 6.5625 0 6C0 5.44922 0.0703125 4.91797 0.210938 4.40625C0.351562 3.89453 0.552734 3.41602 0.814453 2.9707C1.07617 2.52539 1.38867 2.12109 1.75195 1.75781C2.11523 1.39453 2.52148 1.08203 2.9707 0.820312C3.41992 0.558594 3.89648 0.357422 4.40039 0.216797C4.9043 0.0761719 5.4375 0.00390625 6 0ZM10.7402 3.75C10.5918 3.43359 10.4121 3.13672 10.2012 2.85938C9.99023 2.58203 9.75586 2.32617 9.49805 2.0918C9.24023 1.85742 8.96094 1.65234 8.66016 1.47656C8.35938 1.30078 8.04492 1.1543 7.7168 1.03711C7.85742 1.23242 7.98438 1.43945 8.09766 1.6582C8.21094 1.87695 8.31055 2.10156 8.39648 2.33203C8.48242 2.5625 8.55859 2.79883 8.625 3.04102C8.69141 3.2832 8.74609 3.51953 8.78906 3.75H10.7402ZM11.25 6C11.25 5.48047 11.1777 4.98047 11.0332 4.5H8.90625C8.9375 4.75 8.96094 4.99805 8.97656 5.24414C8.99219 5.49023 9 5.74219 9 6C9 6.25391 8.99219 6.50391 8.97656 6.75C8.96094 6.99609 8.9375 7.24609 8.90625 7.5H11.0332C11.1777 7.01953 11.25 6.51953 11.25 6ZM6 11.25C6.19141 11.25 6.36914 11.1973 6.5332 11.0918C6.69727 10.9863 6.85156 10.8477 6.99609 10.6758C7.14062 10.5039 7.26562 10.3105 7.37109 10.0957C7.47656 9.88086 7.57617 9.66016 7.66992 9.43359C7.76367 9.20703 7.83594 8.99219 7.88672 8.78906C7.9375 8.58594 7.98242 8.40625 8.02148 8.25H3.97852C4.00977 8.40234 4.05469 8.58203 4.11328 8.78906C4.17188 8.99609 4.24414 9.21094 4.33008 9.43359C4.41602 9.65625 4.51367 9.875 4.62305 10.0898C4.73242 10.3047 4.85938 10.5 5.00391 10.6758C5.14844 10.8516 5.30078 10.9902 5.46094 11.0918C5.62109 11.1934 5.80078 11.2461 6 11.25ZM8.15039 7.5C8.18164 7.25 8.20508 7.00195 8.2207 6.75586C8.23633 6.50977 8.24609 6.25781 8.25 6C8.25 5.74609 8.24219 5.49609 8.22656 5.25C8.21094 5.00391 8.18555 4.75391 8.15039 4.5H3.84961C3.81836 4.75 3.79492 4.99805 3.7793 5.24414C3.76367 5.49023 3.75391 5.74219 3.75 6C3.75 6.25391 3.75781 6.50391 3.77344 6.75C3.78906 6.99609 3.81445 7.24609 3.84961 7.5H8.15039ZM0.75 6C0.75 6.51953 0.822266 7.01953 0.966797 7.5H3.09375C3.0625 7.25 3.03906 7.00195 3.02344 6.75586C3.00781 6.50977 3 6.25781 3 6C3 5.74609 3.00781 5.49609 3.02344 5.25C3.03906 5.00391 3.0625 4.75391 3.09375 4.5H0.966797C0.822266 4.98047 0.75 5.48047 0.75 6ZM6 0.75C5.80859 0.75 5.63086 0.802734 5.4668 0.908203C5.30273 1.01367 5.14844 1.15234 5.00391 1.32422C4.85938 1.49609 4.73438 1.68945 4.62891 1.9043C4.52344 2.11914 4.42383 2.33984 4.33008 2.56641C4.23633 2.79297 4.16406 3.00781 4.11328 3.21094C4.0625 3.41406 4.01758 3.59375 3.97852 3.75H8.02148C7.99023 3.59766 7.94531 3.41797 7.88672 3.21094C7.82812 3.00391 7.75586 2.78906 7.66992 2.56641C7.58398 2.34375 7.48633 2.125 7.37695 1.91016C7.26758 1.69531 7.14062 1.5 6.99609 1.32422C6.85156 1.14844 6.69922 1.00977 6.53906 0.908203C6.37891 0.806641 6.19922 0.753906 6 0.75ZM4.2832 1.03711C3.95508 1.15039 3.64062 1.29688 3.33984 1.47656C3.03906 1.65625 2.75977 1.86133 2.50195 2.0918C2.24414 2.32227 2.00977 2.57617 1.79883 2.85352C1.58789 3.13086 1.4082 3.42969 1.25977 3.75H3.21094C3.25781 3.51562 3.3125 3.2793 3.375 3.04102C3.4375 2.80273 3.51172 2.56836 3.59766 2.33789C3.68359 2.10742 3.78516 1.88086 3.90234 1.6582C4.01953 1.43555 4.14648 1.22852 4.2832 1.03711ZM1.25977 8.25C1.4082 8.56641 1.58789 8.86328 1.79883 9.14062C2.00977 9.41797 2.24414 9.67383 2.50195 9.9082C2.75977 10.1426 3.03906 10.3477 3.33984 10.5234C3.64062 10.6992 3.95508 10.8457 4.2832 10.9629C4.14258 10.7676 4.01562 10.5605 3.90234 10.3418C3.78906 10.123 3.68945 9.89844 3.60352 9.66797C3.51758 9.4375 3.44141 9.20117 3.375 8.95898C3.30859 8.7168 3.25391 8.48047 3.21094 8.25H1.25977ZM7.7168 10.9629C8.04492 10.8496 8.35938 10.7031 8.66016 10.5234C8.96094 10.3438 9.24023 10.1387 9.49805 9.9082C9.75586 9.67773 9.99023 9.42383 10.2012 9.14648C10.4121 8.86914 10.5918 8.57031 10.7402 8.25H8.78906C8.74219 8.48438 8.6875 8.7207 8.625 8.95898C8.5625 9.19727 8.48828 9.43164 8.40234 9.66211C8.31641 9.89258 8.21484 10.1191 8.09766 10.3418C7.98047 10.5645 7.85352 10.7715 7.7168 10.9629Z" fill="#667085"/>
</svg>
