<svg width="16" height="16" viewBox="0 0 16 16" fill="none" xmlns="http://www.w3.org/2000/svg">
<path d="M9.76643 6.23385C9.99887 6.46604 10.1833 6.74176 10.3091 7.04525C10.4349 7.34875 10.4996 7.67407 10.4996 8.0026C10.4996 8.33114 10.4349 8.65646 10.3091 8.95996C10.1833 9.26345 9.99887 9.53917 9.76643 9.77135M6.23309 9.76719C6.00065 9.535 5.81626 9.25928 5.69045 8.95579C5.56463 8.65229 5.49988 8.32698 5.49988 7.99844C5.49988 7.6699 5.56463 7.34458 5.69045 7.04109C5.81626 6.73759 6.00065 6.46187 6.23309 6.22969M10.9456 5.05469C11.7267 5.83605 12.1655 6.89567 12.1655 8.00052C12.1655 9.10537 11.7267 10.165 10.9456 10.9464M5.05393 10.9464C4.2728 10.165 3.83398 9.10537 3.83398 8.00052C3.83398 6.89567 4.2728 5.83605 5.05393 5.05469M8.83309 8.00052C8.83309 8.46076 8.46 8.83385 7.99976 8.83385C7.53952 8.83385 7.16643 8.46076 7.16643 8.00052C7.16643 7.54028 7.53952 7.16719 7.99976 7.16719C8.46 7.16719 8.83309 7.54028 8.83309 8.00052Z" stroke="#2E90FA" stroke-linecap="round" stroke-linejoin="round"/>
<rect x="0.5" y="0.5" width="15" height="15" rx="7.5" stroke="#0BA5EC"/>
</svg>
