<svg width="40" height="41" viewBox="0 0 40 41" fill="none" xmlns="http://www.w3.org/2000/svg">
<path d="M22.2076 18.2921L9.06732 31.4324M10.4854 21.8959L4.0491 20.3756C3.34097 20.2083 3.09192 19.3292 3.60489 18.8144L8.72348 13.6958C9.06732 13.3519 9.53383 13.1549 10.0226 13.1512L15.7936 13.101M23.0626 6.49741C27.3578 9.42656 31.0731 13.1419 34.0023 17.4371M18.6019 30.0143L20.1223 36.4506C20.2895 37.1587 21.1687 37.4078 21.6835 36.8948L26.8021 31.7762C27.1459 31.4324 27.3429 30.9659 27.3467 30.4771L27.3968 24.7061M35.1045 14.4169L36.6062 7.19067C37.0151 5.22427 35.2754 3.48462 33.309 3.89351L26.0828 5.39526C23.9547 5.8376 22.0032 6.89143 20.468 8.42849L14.539 14.3556C12.2771 16.6175 10.8051 19.5504 10.3405 22.7156L10.32 22.8512C10.0264 24.8715 10.7029 26.9104 12.1452 28.3546C13.5874 29.7968 15.6282 30.4734 17.6485 30.1778L17.7842 30.1574C20.9494 29.6946 23.8822 28.2207 26.1441 25.9588L32.0712 20.0317C33.6083 18.4965 34.6621 16.545 35.1045 14.4169Z" stroke="#FF2A7D" stroke-width="3" stroke-linecap="round" stroke-linejoin="round"/>
</svg>
