<svg width="24" height="24" viewBox="0 0 24 24" fill="none" xmlns="http://www.w3.org/2000/svg">
<g clip-path="url(#clip0_697_143839)">
<path d="M6.99935 6.99984H7.00768M6.99935 16.9998H7.00768M5.33268 3.6665H18.666C19.5865 3.6665 20.3327 4.4127 20.3327 5.33317V8.6665C20.3327 9.58698 19.5865 10.3332 18.666 10.3332H5.33268C4.41221 10.3332 3.66602 9.58698 3.66602 8.6665V5.33317C3.66602 4.4127 4.41221 3.6665 5.33268 3.6665ZM5.33268 13.6665H18.666C19.5865 13.6665 20.3327 14.4127 20.3327 15.3332V18.6665C20.3327 19.587 19.5865 20.3332 18.666 20.3332H5.33268C4.41221 20.3332 3.66602 19.587 3.66602 18.6665V15.3332C3.66602 14.4127 4.41221 13.6665 5.33268 13.6665Z" stroke="#EAECF0" stroke-width="1.8" stroke-linecap="round" stroke-linejoin="round"/>
</g>
<defs>
<clipPath id="clip0_697_143839">
<rect width="20" height="20" fill="white" transform="translate(2 2)"/>
</clipPath>
</defs>
</svg>
