<svg width="16" height="16" viewBox="0 0 16 16" fill="none" xmlns="http://www.w3.org/2000/svg">
<rect x="0.5" y="0.5" width="15" height="15" rx="7.5" fill="#0BA5EC"/>
<path d="M8.00033 8.41634C8.23044 8.41634 8.41699 8.22979 8.41699 7.99967C8.41699 7.76956 8.23044 7.58301 8.00033 7.58301C7.77021 7.58301 7.58366 7.76956 7.58366 7.99967C7.58366 8.22979 7.77021 8.41634 8.00033 8.41634Z" stroke="white" stroke-linecap="round" stroke-linejoin="round"/>
<path d="M10.917 8.41634C11.1471 8.41634 11.3337 8.22979 11.3337 7.99967C11.3337 7.76956 11.1471 7.58301 10.917 7.58301C10.6869 7.58301 10.5003 7.76956 10.5003 7.99967C10.5003 8.22979 10.6869 8.41634 10.917 8.41634Z" stroke="white" stroke-linecap="round" stroke-linejoin="round"/>
<path d="M5.08366 8.41634C5.31378 8.41634 5.50033 8.22979 5.50033 7.99967C5.50033 7.76956 5.31378 7.58301 5.08366 7.58301C4.85354 7.58301 4.66699 7.76956 4.66699 7.99967C4.66699 8.22979 4.85354 8.41634 5.08366 8.41634Z" stroke="white" stroke-linecap="round" stroke-linejoin="round"/>
<rect x="0.5" y="0.5" width="15" height="15" rx="7.5" stroke="#0BA5EC"/>
</svg>
