<svg width="24" height="24" viewBox="0 0 24 24" fill="none" xmlns="http://www.w3.org/2000/svg">
<g clip-path="url(#clip0_1428_61214)">
<path d="M12.8829 11.1155L7.62673 16.3716M8.19398 12.557L5.61944 11.9489C5.33619 11.882 5.23657 11.5304 5.44176 11.3244L7.4892 9.27699C7.62673 9.13945 7.81334 9.06065 8.00886 9.05916L10.3172 9.03909M13.2248 6.39765C14.9429 7.56931 16.4291 9.05544 17.6007 10.7735M11.4406 15.8044L12.0487 18.3789C12.1156 18.6622 12.4673 18.7618 12.6732 18.5566L14.7206 16.5092C14.8582 16.3716 14.937 16.185 14.9385 15.9895L14.9585 13.6811M18.0416 9.56544L18.6423 6.67495C18.8058 5.88839 18.11 5.19253 17.3234 5.35608L14.4329 5.95678C13.5817 6.13372 12.8011 6.55525 12.187 7.17008L9.81542 9.54091C8.91065 10.4457 8.32185 11.6188 8.13599 12.8849L8.12781 12.9392C8.01035 13.7473 8.28096 14.5629 8.85787 15.1405C9.43478 15.7174 10.2511 15.988 11.0592 15.8698L11.1135 15.8616C12.3795 15.6765 13.5527 15.087 14.4575 14.1822L16.8283 11.8114C17.4431 11.1973 17.8646 10.4167 18.0416 9.56544Z" stroke="#101828" stroke-width="1.5" stroke-linecap="round" stroke-linejoin="round"/>
</g>
<defs>
<clipPath id="clip0_1428_61214">
<rect width="16" height="16" fill="white" transform="translate(4 4)"/>
</clipPath>
</defs>
</svg>
