<svg width="32" height="33" viewBox="0 0 32 33" fill="none" xmlns="http://www.w3.org/2000/svg">
<path d="M16 0.5C17.4688 0.5 18.8854 0.6875 20.25 1.0625C21.6146 1.4375 22.8854 1.97917 24.0625 2.6875C25.2396 3.39583 26.3177 4.22917 27.2969 5.1875C28.276 6.14583 29.1146 7.22396 29.8125 8.42188C30.5104 9.61979 31.0469 10.8958 31.4219 12.25C31.7969 13.6042 31.9896 15.0208 32 16.5C32 17.9688 31.8125 19.3854 31.4375 20.75C31.0625 22.1146 30.5208 23.3854 29.8125 24.5625C29.1042 25.7396 28.2708 26.8177 27.3125 27.7969C26.3542 28.776 25.276 29.6146 24.0781 30.3125C22.8802 31.0104 21.6042 31.5469 20.25 31.9219C18.8958 32.2969 17.4792 32.4896 16 32.5C14.5312 32.5 13.1146 32.3125 11.75 31.9375C10.3854 31.5625 9.11458 31.0208 7.9375 30.3125C6.76042 29.6042 5.68229 28.7708 4.70312 27.8125C3.72396 26.8542 2.88542 25.776 2.1875 24.5781C1.48958 23.3802 0.953125 22.1042 0.578125 20.75C0.203125 19.3958 0.0104167 17.9792 0 16.5C0 15.0312 0.1875 13.6146 0.5625 12.25C0.9375 10.8854 1.47917 9.61458 2.1875 8.4375C2.89583 7.26042 3.72917 6.18229 4.6875 5.20312C5.64583 4.22396 6.72396 3.38542 7.92188 2.6875C9.11979 1.98958 10.3958 1.45312 11.75 1.07812C13.1042 0.703125 14.5208 0.510417 16 0.5ZM25.4219 11.2031L23.2969 9.07812L13 19.375L8.70312 15.0781L6.57812 17.2031L13 23.625L25.4219 11.2031Z" fill="#6FC072"/>
</svg>
