<svg width="32" height="32" viewBox="0 0 32 32" fill="none" xmlns="http://www.w3.org/2000/svg">
<circle cx="16" cy="16" r="16" fill="#B82C2C"/>
<path d="M8.28571 18.0714C9.54808 18.0714 10.5714 17.0481 10.5714 15.7857C10.5714 14.5233 9.54808 13.5 8.28571 13.5C7.02335 13.5 6 14.5233 6 15.7857C6 17.0481 7.02335 18.0714 8.28571 18.0714Z" fill="white"/>
<path d="M15.857 18.0714C17.1194 18.0714 18.1427 17.0481 18.1427 15.7857C18.1427 14.5233 17.1194 13.5 15.857 13.5C14.5946 13.5 13.5713 14.5233 13.5713 15.7857C13.5713 17.0481 14.5946 18.0714 15.857 18.0714Z" fill="white"/>
<path d="M23.4283 18.0714C24.6907 18.0714 25.714 17.0481 25.714 15.7857C25.714 14.5233 24.6907 13.5 23.4283 13.5C22.1659 13.5 21.1426 14.5233 21.1426 15.7857C21.1426 17.0481 22.1659 18.0714 23.4283 18.0714Z" fill="white"/>
</svg>
